<svg width="373" height="131" viewBox="0 0 373 131" fill="none" xmlns="http://www.w3.org/2000/svg">
<path d="M13.5025 59.5H3.45135L18.7663 15.1364H30.8537L46.147 59.5H36.0959L24.9833 25.2741H24.6367L13.5025 59.5ZM12.8743 42.0621H36.6158V49.3839H12.8743V42.0621ZM62.0252 60.0415C59.498 60.0415 57.209 59.3917 55.1584 58.092C53.1222 56.7778 51.5047 54.8499 50.3061 52.3082C49.1219 49.7521 48.5298 46.6184 48.5298 42.907C48.5298 39.0945 49.1436 35.9246 50.3711 33.3974C51.5986 30.8557 53.2305 28.9567 55.2667 27.7003C57.3174 26.4295 59.563 25.794 62.0036 25.794C63.8665 25.794 65.4189 26.1117 66.6609 26.7472C67.9173 27.3681 68.9281 28.148 69.6935 29.0866C70.4734 30.0109 71.0655 30.9207 71.4698 31.816H71.7514V15.1364H80.9577V59.5H71.8597V54.1712H71.4698C71.0366 55.0954 70.4228 56.0124 69.6286 56.9222C68.8487 57.8176 67.8306 58.5613 66.5742 59.1534C65.3323 59.7455 63.8159 60.0415 62.0252 60.0415ZM64.9496 52.6982C66.437 52.6982 67.6934 52.2938 68.7188 51.4851C69.7585 50.6619 70.5528 49.5138 71.1016 48.0408C71.6648 46.5678 71.9464 44.8421 71.9464 42.8636C71.9464 40.8852 71.672 39.1667 71.1232 37.7081C70.5745 36.2495 69.7802 35.1231 68.7404 34.3288C67.7006 33.5346 66.437 33.1374 64.9496 33.1374C63.4332 33.1374 62.1552 33.549 61.1154 34.3722C60.0756 35.1953 59.2886 36.3362 58.7543 37.7947C58.2199 39.2533 57.9528 40.9429 57.9528 42.8636C57.9528 44.7988 58.2199 46.5101 58.7543 47.9975C59.303 49.4705 60.0901 50.6258 61.1154 51.4634C62.1552 52.2866 63.4332 52.6982 64.9496 52.6982ZM100.805 60.0415C98.2783 60.0415 95.9893 59.3917 93.9387 58.092C91.9024 56.7778 90.285 54.8499 89.0864 52.3082C87.9022 49.7521 87.3101 46.6184 87.3101 42.907C87.3101 39.0945 87.9239 35.9246 89.1514 33.3974C90.3789 30.8557 92.0107 28.9567 94.047 27.7003C96.0976 26.4295 98.3432 25.794 100.784 25.794C102.647 25.794 104.199 26.1117 105.441 26.7472C106.698 27.3681 107.708 28.148 108.474 29.0866C109.254 30.0109 109.846 30.9207 110.25 31.816H110.532V15.1364H119.738V59.5H110.64V54.1712H110.25C109.817 55.0954 109.203 56.0124 108.409 56.9222C107.629 57.8176 106.611 58.5613 105.354 59.1534C104.113 59.7455 102.596 60.0415 100.805 60.0415ZM103.73 52.6982C105.217 52.6982 106.474 52.2938 107.499 51.4851C108.539 50.6619 109.333 49.5138 109.882 48.0408C110.445 46.5678 110.727 44.8421 110.727 42.8636C110.727 40.8852 110.452 39.1667 109.903 37.7081C109.355 36.2495 108.56 35.1231 107.521 34.3288C106.481 33.5346 105.217 33.1374 103.73 33.1374C102.214 33.1374 100.935 33.549 99.8957 34.3722C98.8559 35.1953 98.0689 36.3362 97.5345 37.7947C97.0002 39.2533 96.733 40.9429 96.733 42.8636C96.733 44.7988 97.0002 46.5101 97.5345 47.9975C98.0833 49.4705 98.8704 50.6258 99.8957 51.4634C100.935 52.2866 102.214 52.6982 103.73 52.6982ZM156.477 60.1499C153.069 60.1499 150.137 59.4278 147.682 57.9837C145.241 56.5251 143.364 54.5033 142.05 51.9183C140.75 49.3333 140.1 46.3584 140.1 42.9936C140.1 39.5855 140.757 36.5961 142.071 34.0256C143.4 31.4406 145.285 29.426 147.725 27.9819C150.166 26.5233 153.069 25.794 156.433 25.794C159.336 25.794 161.878 26.3211 164.058 27.3754C166.239 28.4296 167.965 29.9098 169.236 31.816C170.506 33.7223 171.207 35.9607 171.337 38.5312H162.629C162.383 36.8705 161.733 35.5347 160.679 34.5238C159.639 33.4985 158.275 32.9858 156.585 32.9858C155.155 32.9858 153.906 33.3757 152.837 34.1555C151.783 34.9209 150.96 36.0401 150.368 37.5131C149.776 38.9862 149.48 40.7696 149.48 42.8636C149.48 44.9865 149.769 46.7917 150.346 48.2791C150.938 49.7666 151.769 50.9002 152.837 51.68C153.906 52.4599 155.155 52.8498 156.585 52.8498C157.639 52.8498 158.585 52.6332 159.423 52.1999C160.275 51.7667 160.975 51.1385 161.524 50.3153C162.087 49.4777 162.455 48.4741 162.629 47.3043H171.337C171.192 49.846 170.499 52.0844 169.257 54.0195C168.03 55.9402 166.333 57.4421 164.167 58.5252C162 59.6083 159.437 60.1499 156.477 60.1499ZM192.278 60.1499C188.914 60.1499 186.004 59.435 183.549 58.0053C181.108 56.5612 179.223 54.5539 177.895 51.9833C176.566 49.3983 175.902 46.4018 175.902 42.9936C175.902 39.5566 176.566 36.5528 177.895 33.9822C179.223 31.3973 181.108 29.3899 183.549 27.9602C186.004 26.5161 188.914 25.794 192.278 25.794C195.643 25.794 198.546 26.5161 200.987 27.9602C203.442 29.3899 205.333 31.3973 206.662 33.9822C207.991 36.5528 208.655 39.5566 208.655 42.9936C208.655 46.4018 207.991 49.3983 206.662 51.9833C205.333 54.5539 203.442 56.5612 200.987 58.0053C198.546 59.435 195.643 60.1499 192.278 60.1499ZM192.322 53.0014C193.853 53.0014 195.131 52.5682 196.156 51.7017C197.181 50.8208 197.954 49.6222 198.474 48.1058C199.008 46.5895 199.275 44.8638 199.275 42.9286C199.275 40.9935 199.008 39.2678 198.474 37.7514C197.954 36.2351 197.181 35.0365 196.156 34.1555C195.131 33.2746 193.853 32.8342 192.322 32.8342C190.777 32.8342 189.477 33.2746 188.423 34.1555C187.383 35.0365 186.596 36.2351 186.061 37.7514C185.542 39.2678 185.282 40.9935 185.282 42.9286C185.282 44.8638 185.542 46.5895 186.061 48.1058C186.596 49.6222 187.383 50.8208 188.423 51.7017C189.477 52.5682 190.777 53.0014 192.322 53.0014ZM223.883 40.2642V59.5H214.655V26.2273H223.45V32.0977H223.84C224.576 30.1625 225.811 28.6317 227.544 27.5053C229.277 26.3645 231.378 25.794 233.848 25.794C236.158 25.794 238.173 26.2995 239.891 27.3104C241.61 28.3213 242.946 29.7654 243.899 31.6428C244.852 33.5057 245.328 35.7296 245.328 38.3146V59.5H236.1V39.9609C236.115 37.9247 235.595 36.3362 234.541 35.1953C233.487 34.04 232.035 33.4624 230.187 33.4624C228.945 33.4624 227.847 33.7295 226.894 34.2638C225.955 34.7982 225.219 35.578 224.685 36.6033C224.165 37.6142 223.898 38.8345 223.883 40.2642ZM270.299 26.2273V33.1591H250.262V26.2273H270.299ZM254.811 18.2557H264.039V49.2756C264.039 50.1276 264.169 50.7919 264.429 51.2685C264.689 51.7306 265.05 52.0555 265.512 52.2433C265.989 52.431 266.537 52.5249 267.158 52.5249C267.592 52.5249 268.025 52.4888 268.458 52.4165C268.891 52.3299 269.223 52.2649 269.454 52.2216L270.906 59.0884C270.444 59.2328 269.794 59.3989 268.956 59.5866C268.119 59.7888 267.101 59.9116 265.902 59.9549C263.678 60.0415 261.728 59.7455 260.053 59.0668C258.392 58.388 257.1 57.3338 256.176 55.9041C255.251 54.4744 254.797 52.6693 254.811 50.4886V18.2557ZM285.798 60.1282C283.676 60.1282 281.784 59.7599 280.123 59.0234C278.462 58.2725 277.148 57.1677 276.18 55.7092C275.227 54.2362 274.751 52.4021 274.751 50.207C274.751 48.3585 275.09 46.8061 275.769 45.5497C276.448 44.2933 277.372 43.2824 278.542 42.517C279.711 41.7517 281.04 41.174 282.527 40.7841C284.029 40.3942 285.603 40.1198 287.25 39.9609C289.185 39.7588 290.745 39.571 291.929 39.3977C293.113 39.21 293.972 38.9356 294.506 38.5746C295.041 38.2135 295.308 37.6792 295.308 36.9716V36.8416C295.308 35.4697 294.875 34.4083 294.008 33.6573C293.156 32.9064 291.943 32.5309 290.369 32.5309C288.708 32.5309 287.387 32.8991 286.405 33.6357C285.423 34.3577 284.773 35.2675 284.455 36.3651L275.921 35.6719C276.354 33.6501 277.206 31.9027 278.477 30.4297C279.747 28.9422 281.387 27.8014 283.394 27.0071C285.416 26.1984 287.755 25.794 290.412 25.794C292.261 25.794 294.03 26.0107 295.72 26.4439C297.424 26.8771 298.933 27.5486 300.247 28.4584C301.575 29.3683 302.622 30.538 303.388 31.9677C304.153 33.3829 304.536 35.0798 304.536 37.0582V59.5H295.785V54.886H295.525C294.99 55.9258 294.275 56.8428 293.38 57.6371C292.485 58.4169 291.409 59.0307 290.152 59.4783C288.896 59.9116 287.445 60.1282 285.798 60.1282ZM288.441 53.7596C289.799 53.7596 290.997 53.4924 292.037 52.9581C293.077 52.4093 293.893 51.6728 294.485 50.7486C295.077 49.8243 295.373 48.7773 295.373 47.6076V44.0767C295.084 44.2644 294.687 44.4377 294.182 44.5966C293.691 44.741 293.135 44.8782 292.514 45.0082C291.893 45.1237 291.272 45.232 290.651 45.3331C290.03 45.4197 289.466 45.4992 288.961 45.5714C287.878 45.7302 286.932 45.983 286.123 46.3295C285.315 46.6761 284.686 47.1455 284.239 47.7376C283.791 48.3152 283.567 49.0373 283.567 49.9038C283.567 51.1602 284.022 52.1205 284.932 52.7848C285.856 53.4347 287.026 53.7596 288.441 53.7596ZM326.729 60.1499C323.32 60.1499 320.389 59.4278 317.934 57.9837C315.493 56.5251 313.616 54.5033 312.302 51.9183C311.002 49.3333 310.352 46.3584 310.352 42.9936C310.352 39.5855 311.009 36.5961 312.323 34.0256C313.652 31.4406 315.537 29.426 317.977 27.9819C320.418 26.5233 323.32 25.794 326.685 25.794C329.588 25.794 332.13 26.3211 334.31 27.3754C336.491 28.4296 338.217 29.9098 339.487 31.816C340.758 33.7223 341.459 35.9607 341.589 38.5312H332.881C332.635 36.8705 331.985 35.5347 330.931 34.5238C329.891 33.4985 328.527 32.9858 326.837 32.9858C325.407 32.9858 324.158 33.3757 323.089 34.1555C322.035 34.9209 321.212 36.0401 320.62 37.5131C320.028 38.9862 319.732 40.7696 319.732 42.8636C319.732 44.9865 320.021 46.7917 320.598 48.2791C321.19 49.7666 322.021 50.9002 323.089 51.68C324.158 52.4599 325.407 52.8498 326.837 52.8498C327.891 52.8498 328.837 52.6332 329.675 52.1999C330.527 51.7667 331.227 51.1385 331.776 50.3153C332.339 49.4777 332.707 48.4741 332.881 47.3043H341.589C341.444 49.846 340.751 52.0844 339.509 54.0195C338.282 55.9402 336.585 57.4421 334.419 58.5252C332.252 59.6083 329.689 60.1499 326.729 60.1499ZM365.195 26.2273V33.1591H345.157V26.2273H365.195ZM349.706 18.2557H358.934V49.2756C358.934 50.1276 359.064 50.7919 359.324 51.2685C359.584 51.7306 359.945 52.0555 360.407 52.2433C360.884 52.431 361.433 52.5249 362.054 52.5249C362.487 52.5249 362.92 52.4888 363.354 52.4165C363.787 52.3299 364.119 52.2649 364.35 52.2216L365.801 59.0884C365.339 59.2328 364.689 59.3989 363.852 59.5866C363.014 59.7888 361.996 59.9116 360.797 59.9549C358.573 60.0415 356.624 59.7455 354.949 59.0668C353.288 58.388 351.995 57.3338 351.071 55.9041C350.147 54.4744 349.692 52.6693 349.706 50.4886V18.2557Z" fill="white"/>
<path d="M3.30398 89.973V87.8636H18.0312V89.973H11.8565V107.5H9.47869V89.973H3.30398ZM23.7242 107.845C22.7909 107.845 21.944 107.669 21.1833 107.318C20.4227 106.96 19.8186 106.445 19.3712 105.774C18.9237 105.097 18.7 104.278 18.7 103.32C18.7 102.476 18.8662 101.792 19.1986 101.268C19.531 100.737 19.9752 100.322 20.5313 100.021C21.0874 99.7209 21.7011 99.4972 22.3722 99.3501C23.0498 99.1967 23.7306 99.0753 24.4145 98.9858C25.3094 98.8707 26.0349 98.7844 26.591 98.7269C27.1535 98.663 27.5626 98.5575 27.8183 98.4105C28.0803 98.2635 28.2114 98.0078 28.2114 97.6435V97.5668C28.2114 96.6207 27.9525 95.8857 27.4347 95.3615C26.9234 94.8374 26.1468 94.5753 25.1048 94.5753C24.0246 94.5753 23.1776 94.8118 22.564 95.2848C21.9504 95.7578 21.5189 96.2628 21.2696 96.7997L19.1219 96.0327C19.5054 95.1378 20.0168 94.4411 20.656 93.9425C21.3016 93.4375 22.0047 93.0859 22.7654 92.8878C23.5324 92.6832 24.2867 92.581 25.0281 92.581C25.5012 92.581 26.0445 92.6385 26.6581 92.7536C27.2781 92.8622 27.8758 93.0891 28.4511 93.4343C29.0328 93.7795 29.5154 94.3004 29.8989 94.9972C30.2824 95.6939 30.4742 96.6271 30.4742 97.7969V107.5H28.2114V105.506H28.0963C27.9429 105.825 27.6872 106.167 27.3293 106.532C26.9713 106.896 26.4951 107.206 25.9007 107.462C25.3062 107.717 24.5807 107.845 23.7242 107.845ZM24.0693 105.812C24.9642 105.812 25.7185 105.637 26.3321 105.285C26.9521 104.934 27.4188 104.48 27.732 103.924C28.0516 103.368 28.2114 102.783 28.2114 102.169V100.098C28.1155 100.213 27.9046 100.319 27.5786 100.414C27.259 100.504 26.8882 100.584 26.4664 100.654C26.0509 100.718 25.645 100.776 25.2487 100.827C24.8588 100.871 24.5423 100.91 24.2995 100.942C23.7114 101.018 23.1617 101.143 22.6503 101.316C22.1453 101.482 21.7362 101.734 21.423 102.073C21.1162 102.406 20.9628 102.859 20.9628 103.435C20.9628 104.221 21.2536 104.815 21.8353 105.218C22.4234 105.614 23.1681 105.812 24.0693 105.812ZM45.036 96.071L43.0034 96.6463C42.8755 96.3075 42.687 95.9783 42.4377 95.6587C42.1948 95.3327 41.8624 95.0643 41.4405 94.8533C41.0186 94.6424 40.4785 94.5369 39.8201 94.5369C38.9189 94.5369 38.1678 94.7447 37.5669 95.1602C36.9725 95.5692 36.6752 96.0902 36.6752 96.723C36.6752 97.2855 36.8798 97.7298 37.2889 98.0558C37.698 98.3817 38.3372 98.6534 39.2065 98.8707L41.3926 99.4077C42.7093 99.7273 43.6905 100.216 44.3361 100.875C44.9817 101.527 45.3045 102.367 45.3045 103.396C45.3045 104.24 45.0616 104.994 44.5758 105.659C44.0964 106.324 43.4252 106.848 42.5623 107.232C41.6994 107.615 40.6958 107.807 39.5517 107.807C38.0495 107.807 36.8063 107.481 35.8219 106.829C34.8375 106.177 34.2143 105.224 33.9522 103.972L36.1 103.435C36.3045 104.227 36.6912 104.822 37.2601 105.218C37.8354 105.614 38.5865 105.812 39.5133 105.812C40.568 105.812 41.4054 105.589 42.0254 105.141C42.6518 104.687 42.965 104.144 42.965 103.511C42.965 103 42.786 102.572 42.4281 102.227C42.0701 101.875 41.5204 101.613 40.7789 101.44L38.3244 100.865C36.9757 100.545 35.9849 100.05 35.3521 99.3789C34.7257 98.7013 34.4125 97.8544 34.4125 96.8381C34.4125 96.0071 34.6458 95.272 35.1124 94.6328C35.5854 93.9936 36.2278 93.4918 37.0396 93.1275C37.8578 92.7631 38.7846 92.581 39.8201 92.581C41.2775 92.581 42.4217 92.9006 43.2527 93.5398C44.09 94.179 44.6845 95.0227 45.036 96.071ZM50.82 102.131L50.7817 99.331H51.2419L57.6851 92.7727H60.4848L53.6198 99.7145H53.428L50.82 102.131ZM48.7107 107.5V87.8636H50.9735V107.5H48.7107ZM58.0686 107.5L52.3158 100.213L53.9266 98.6406L60.945 107.5H58.0686ZM73.829 96.071L71.7963 96.6463C71.6685 96.3075 71.4799 95.9783 71.2306 95.6587C70.9877 95.3327 70.6554 95.0643 70.2335 94.8533C69.8116 94.6424 69.2715 94.5369 68.6131 94.5369C67.7118 94.5369 66.9608 94.7447 66.3599 95.1602C65.7654 95.5692 65.4682 96.0902 65.4682 96.723C65.4682 97.2855 65.6728 97.7298 66.0819 98.0558C66.4909 98.3817 67.1301 98.6534 67.9995 98.8707L70.1855 99.4077C71.5023 99.7273 72.4835 100.216 73.1291 100.875C73.7747 101.527 74.0975 102.367 74.0975 103.396C74.0975 104.24 73.8546 104.994 73.3688 105.659C72.8894 106.324 72.2182 106.848 71.3553 107.232C70.4924 107.615 69.4888 107.807 68.3446 107.807C66.8425 107.807 65.5993 107.481 64.6149 106.829C63.6305 106.177 63.0073 105.224 62.7452 103.972L64.8929 103.435C65.0975 104.227 65.4842 104.822 66.0531 105.218C66.6284 105.614 67.3794 105.812 68.3063 105.812C69.361 105.812 70.1983 105.589 70.8184 105.141C71.4448 104.687 71.758 104.144 71.758 103.511C71.758 103 71.579 102.572 71.2211 102.227C70.8631 101.875 70.3134 101.613 69.5719 101.44L67.1174 100.865C65.7686 100.545 64.7779 100.05 64.1451 99.3789C63.5186 98.7013 63.2054 97.8544 63.2054 96.8381C63.2054 96.0071 63.4387 95.272 63.9054 94.6328C64.3784 93.9936 65.0208 93.4918 65.8326 93.1275C66.6507 92.7631 67.5776 92.581 68.6131 92.581C70.0705 92.581 71.2147 92.9006 72.0456 93.5398C72.883 94.179 73.4775 95.0227 73.829 96.071ZM89.4312 107.845C88.498 107.845 87.651 107.669 86.8904 107.318C86.1297 106.96 85.5257 106.445 85.0782 105.774C84.6308 105.097 84.407 104.278 84.407 103.32C84.407 102.476 84.5732 101.792 84.9056 101.268C85.238 100.737 85.6823 100.322 86.2384 100.021C86.7945 99.7209 87.4081 99.4972 88.0793 99.3501C88.7568 99.1967 89.4376 99.0753 90.1215 98.9858C91.0164 98.8707 91.7419 98.7844 92.298 98.7269C92.8605 98.663 93.2696 98.5575 93.5253 98.4105C93.7874 98.2635 93.9184 98.0078 93.9184 97.6435V97.5668C93.9184 96.6207 93.6595 95.8857 93.1418 95.3615C92.6304 94.8374 91.8538 94.5753 90.8119 94.5753C89.7316 94.5753 88.8847 94.8118 88.271 95.2848C87.6574 95.7578 87.2259 96.2628 86.9767 96.7997L84.8289 96.0327C85.2124 95.1378 85.7238 94.4411 86.363 93.9425C87.0086 93.4375 87.7117 93.0859 88.4724 92.8878C89.2394 92.6832 89.9937 92.581 90.7352 92.581C91.2082 92.581 91.7515 92.6385 92.3651 92.7536C92.9852 92.8622 93.5828 93.0891 94.1581 93.4343C94.7398 93.7795 95.2224 94.3004 95.6059 94.9972C95.9894 95.6939 96.1812 96.6271 96.1812 97.7969V107.5H93.9184V105.506H93.8034C93.6499 105.825 93.3943 106.167 93.0363 106.532C92.6784 106.896 92.2021 107.206 91.6077 107.462C91.0132 107.717 90.2877 107.845 89.4312 107.845ZM89.7764 105.812C90.6713 105.812 91.4255 105.637 92.0392 105.285C92.6592 104.934 93.1258 104.48 93.439 103.924C93.7586 103.368 93.9184 102.783 93.9184 102.169V100.098C93.8225 100.213 93.6116 100.319 93.2856 100.414C92.966 100.504 92.5953 100.584 92.1734 100.654C91.7579 100.718 91.352 100.776 90.9557 100.827C90.5658 100.871 90.2494 100.91 90.0065 100.942C89.4184 101.018 88.8687 101.143 88.3573 101.316C87.8524 101.482 87.4433 101.734 87.1301 102.073C86.8232 102.406 86.6698 102.859 86.6698 103.435C86.6698 104.221 86.9607 104.815 87.5423 105.218C88.1304 105.614 88.8751 105.812 89.7764 105.812ZM100.311 107.5V92.7727H102.497V94.9972H102.651C102.919 94.2685 103.405 93.6772 104.108 93.2234C104.811 92.7695 105.604 92.5426 106.486 92.5426C106.652 92.5426 106.86 92.5458 107.109 92.5522C107.358 92.5586 107.547 92.5682 107.675 92.581V94.8821C107.598 94.8629 107.422 94.8342 107.148 94.7958C106.879 94.7511 106.595 94.7287 106.294 94.7287C105.578 94.7287 104.939 94.8789 104.377 95.1793C103.82 95.4734 103.379 95.8825 103.053 96.4066C102.734 96.9244 102.574 97.5156 102.574 98.1804V107.5H100.311ZM116.084 107.807C114.665 107.807 113.441 107.494 112.411 106.867C111.389 106.234 110.599 105.352 110.043 104.221C109.493 103.083 109.219 101.76 109.219 100.251C109.219 98.7429 109.493 97.4134 110.043 96.2628C110.599 95.1058 111.373 94.2045 112.363 93.5589C113.361 92.907 114.524 92.581 115.854 92.581C116.621 92.581 117.378 92.7088 118.126 92.9645C118.874 93.2202 119.555 93.6357 120.168 94.2109C120.782 94.7798 121.271 95.5341 121.635 96.4737C121.999 97.4134 122.182 98.5703 122.182 99.9446V100.903H110.829V98.9474H119.881C119.881 98.1165 119.714 97.375 119.382 96.723C119.056 96.071 118.589 95.5565 117.982 95.1793C117.381 94.8022 116.672 94.6136 115.854 94.6136C114.952 94.6136 114.172 94.8374 113.514 95.2848C112.862 95.7259 112.36 96.3011 112.009 97.0107C111.657 97.7202 111.481 98.4808 111.481 99.2926V100.597C111.481 101.709 111.673 102.652 112.057 103.425C112.447 104.192 112.987 104.777 113.677 105.18C114.367 105.576 115.17 105.774 116.084 105.774C116.678 105.774 117.215 105.691 117.694 105.525C118.18 105.352 118.599 105.097 118.95 104.758C119.302 104.413 119.574 103.984 119.765 103.473L121.952 104.087C121.721 104.828 121.335 105.48 120.791 106.043C120.248 106.599 119.577 107.033 118.778 107.347C117.979 107.653 117.081 107.807 116.084 107.807ZM133.524 107.5V87.8636H135.787V95.1122H135.979C136.145 94.8565 136.375 94.5305 136.669 94.1342C136.97 93.7315 137.398 93.3736 137.954 93.0604C138.517 92.7408 139.277 92.581 140.236 92.581C141.476 92.581 142.569 92.891 143.515 93.511C144.461 94.131 145.199 95.0099 145.73 96.1477C146.26 97.2855 146.526 98.6278 146.526 100.175C146.526 101.734 146.26 103.086 145.73 104.23C145.199 105.368 144.464 106.25 143.525 106.877C142.585 107.497 141.502 107.807 140.274 107.807C139.328 107.807 138.571 107.65 138.002 107.337C137.433 107.017 136.995 106.656 136.688 106.254C136.382 105.844 136.145 105.506 135.979 105.237H135.71V107.5H133.524ZM135.749 100.136C135.749 101.249 135.912 102.23 136.238 103.08C136.564 103.924 137.04 104.585 137.666 105.065C138.293 105.538 139.06 105.774 139.968 105.774C140.914 105.774 141.703 105.525 142.336 105.026C142.975 104.521 143.454 103.844 143.774 102.994C144.1 102.137 144.263 101.185 144.263 100.136C144.263 99.1009 144.103 98.1676 143.784 97.3366C143.47 96.4993 142.994 95.8377 142.355 95.3519C141.722 94.8597 140.926 94.6136 139.968 94.6136C139.047 94.6136 138.274 94.8469 137.647 95.3136C137.021 95.7738 136.548 96.4194 136.228 97.2504C135.909 98.0749 135.749 99.0369 135.749 100.136ZM156.162 107.807C154.743 107.807 153.519 107.494 152.49 106.867C151.467 106.234 150.677 105.352 150.121 104.221C149.572 103.083 149.297 101.76 149.297 100.251C149.297 98.7429 149.572 97.4134 150.121 96.2628C150.677 95.1058 151.451 94.2045 152.442 93.5589C153.439 92.907 154.602 92.581 155.932 92.581C156.699 92.581 157.456 92.7088 158.204 92.9645C158.952 93.2202 159.633 93.6357 160.246 94.2109C160.86 94.7798 161.349 95.5341 161.713 96.4737C162.078 97.4134 162.26 98.5703 162.26 99.9446V100.903H150.907V98.9474H159.959C159.959 98.1165 159.792 97.375 159.46 96.723C159.134 96.071 158.667 95.5565 158.06 95.1793C157.459 94.8022 156.75 94.6136 155.932 94.6136C155.03 94.6136 154.251 94.8374 153.592 95.2848C152.94 95.7259 152.438 96.3011 152.087 97.0107C151.735 97.7202 151.559 98.4808 151.559 99.2926V100.597C151.559 101.709 151.751 102.652 152.135 103.425C152.525 104.192 153.065 104.777 153.755 105.18C154.445 105.576 155.248 105.774 156.162 105.774C156.756 105.774 157.293 105.691 157.773 105.525C158.258 105.352 158.677 105.097 159.029 104.758C159.38 104.413 159.652 103.984 159.844 103.473L162.03 104.087C161.8 104.828 161.413 105.48 160.869 106.043C160.326 106.599 159.655 107.033 158.856 107.347C158.057 107.653 157.159 107.807 156.162 107.807ZM172.107 92.7727V94.6903H164.475V92.7727H172.107ZM166.699 89.2443H168.962V103.281C168.962 103.92 169.055 104.4 169.24 104.719C169.432 105.033 169.675 105.244 169.969 105.352C170.269 105.455 170.585 105.506 170.918 105.506C171.167 105.506 171.372 105.493 171.531 105.467C171.691 105.435 171.819 105.41 171.915 105.391L172.375 107.423C172.222 107.481 172.008 107.538 171.733 107.596C171.458 107.66 171.11 107.692 170.688 107.692C170.048 107.692 169.422 107.554 168.808 107.279C168.201 107.005 167.696 106.586 167.294 106.023C166.897 105.461 166.699 104.751 166.699 103.895V89.2443ZM181.915 92.7727V94.6903H174.283V92.7727H181.915ZM176.508 89.2443H178.77V103.281C178.77 103.92 178.863 104.4 179.048 104.719C179.24 105.033 179.483 105.244 179.777 105.352C180.078 105.455 180.394 105.506 180.726 105.506C180.976 105.506 181.18 105.493 181.34 105.467C181.5 105.435 181.628 105.41 181.724 105.391L182.184 107.423C182.03 107.481 181.816 107.538 181.541 107.596C181.267 107.66 180.918 107.692 180.496 107.692C179.857 107.692 179.231 107.554 178.617 107.279C178.01 107.005 177.505 106.586 177.102 106.023C176.706 105.461 176.508 104.751 176.508 103.895V89.2443ZM191.336 107.807C189.917 107.807 188.692 107.494 187.663 106.867C186.641 106.234 185.851 105.352 185.295 104.221C184.745 103.083 184.471 101.76 184.471 100.251C184.471 98.7429 184.745 97.4134 185.295 96.2628C185.851 95.1058 186.625 94.2045 187.615 93.5589C188.613 92.907 189.776 92.581 191.105 92.581C191.873 92.581 192.63 92.7088 193.378 92.9645C194.126 93.2202 194.806 93.6357 195.42 94.2109C196.034 94.7798 196.523 95.5341 196.887 96.4737C197.251 97.4134 197.434 98.5703 197.434 99.9446V100.903H186.081V98.9474H195.132C195.132 98.1165 194.966 97.375 194.634 96.723C194.308 96.071 193.841 95.5565 193.234 95.1793C192.633 94.8022 191.924 94.6136 191.105 94.6136C190.204 94.6136 189.424 94.8374 188.766 95.2848C188.114 95.7259 187.612 96.3011 187.261 97.0107C186.909 97.7202 186.733 98.4808 186.733 99.2926V100.597C186.733 101.709 186.925 102.652 187.309 103.425C187.699 104.192 188.239 104.777 188.929 105.18C189.619 105.576 190.422 105.774 191.336 105.774C191.93 105.774 192.467 105.691 192.946 105.525C193.432 105.352 193.851 105.097 194.202 104.758C194.554 104.413 194.826 103.984 195.017 103.473L197.203 104.087C196.973 104.828 196.587 105.48 196.043 106.043C195.5 106.599 194.829 107.033 194.03 107.347C193.231 107.653 192.333 107.807 191.336 107.807ZM200.876 107.5V92.7727H203.062V94.9972H203.215C203.484 94.2685 203.969 93.6772 204.673 93.2234C205.376 92.7695 206.168 92.5426 207.05 92.5426C207.217 92.5426 207.424 92.5458 207.674 92.5522C207.923 92.5586 208.112 92.5682 208.239 92.581V94.8821C208.163 94.8629 207.987 94.8342 207.712 94.7958C207.444 94.7511 207.159 94.7287 206.859 94.7287C206.143 94.7287 205.504 94.8789 204.941 95.1793C204.385 95.4734 203.944 95.8825 203.618 96.4066C203.298 96.9244 203.138 97.5156 203.138 98.1804V107.5H200.876ZM221.852 107.5L217.365 92.7727H219.743L222.926 104.048H223.079L226.224 92.7727H228.64L231.747 104.01H231.9L235.084 92.7727H237.461L232.974 107.5H230.75L227.528 96.1861H227.298L224.076 107.5H221.852ZM240.453 107.5V92.7727H242.716V107.5H240.453ZM241.603 90.3182C241.162 90.3182 240.782 90.168 240.462 89.8675C240.149 89.5671 239.993 89.206 239.993 88.7841C239.993 88.3622 240.149 88.0011 240.462 87.7006C240.782 87.4002 241.162 87.25 241.603 87.25C242.044 87.25 242.422 87.4002 242.735 87.7006C243.054 88.0011 243.214 88.3622 243.214 88.7841C243.214 89.206 243.054 89.5671 242.735 89.8675C242.422 90.168 242.044 90.3182 241.603 90.3182ZM253.265 92.7727V94.6903H245.633V92.7727H253.265ZM247.857 89.2443H250.12V103.281C250.12 103.92 250.213 104.4 250.398 104.719C250.59 105.033 250.833 105.244 251.127 105.352C251.427 105.455 251.744 105.506 252.076 105.506C252.325 105.506 252.53 105.493 252.69 105.467C252.849 105.435 252.977 105.41 253.073 105.391L253.533 107.423C253.38 107.481 253.166 107.538 252.891 107.596C252.616 107.66 252.268 107.692 251.846 107.692C251.207 107.692 250.58 107.554 249.967 107.279C249.359 107.005 248.854 106.586 248.452 106.023C248.055 105.461 247.857 104.751 247.857 103.895V89.2443ZM259.248 98.6406V107.5H256.985V87.8636H259.248V95.0739H259.44C259.785 94.3132 260.303 93.7092 260.993 93.2617C261.69 92.8079 262.616 92.581 263.773 92.581C264.777 92.581 265.656 92.7823 266.41 93.185C267.164 93.5813 267.749 94.1918 268.165 95.0163C268.587 95.8345 268.798 96.8764 268.798 98.142V107.5H266.535V98.2955C266.535 97.1257 266.231 96.2212 265.624 95.582C265.023 94.9364 264.189 94.6136 263.121 94.6136C262.38 94.6136 261.715 94.7702 261.127 95.0835C260.545 95.3967 260.085 95.8537 259.746 96.4545C259.414 97.0554 259.248 97.7841 259.248 98.6406ZM284.865 107.845C283.932 107.845 283.085 107.669 282.324 107.318C281.563 106.96 280.959 106.445 280.512 105.774C280.064 105.097 279.841 104.278 279.841 103.32C279.841 102.476 280.007 101.792 280.339 101.268C280.672 100.737 281.116 100.322 281.672 100.021C282.228 99.7209 282.842 99.4972 283.513 99.3501C284.19 99.1967 284.871 99.0753 285.555 98.9858C286.45 98.8707 287.176 98.7844 287.732 98.7269C288.294 98.663 288.703 98.5575 288.959 98.4105C289.221 98.2635 289.352 98.0078 289.352 97.6435V97.5668C289.352 96.6207 289.093 95.8857 288.575 95.3615C288.064 94.8374 287.287 94.5753 286.245 94.5753C285.165 94.5753 284.318 94.8118 283.705 95.2848C283.091 95.7578 282.66 96.2628 282.41 96.7997L280.263 96.0327C280.646 95.1378 281.157 94.4411 281.797 93.9425C282.442 93.4375 283.145 93.0859 283.906 92.8878C284.673 92.6832 285.427 92.581 286.169 92.581C286.642 92.581 287.185 92.6385 287.799 92.7536C288.419 92.8622 289.016 93.0891 289.592 93.4343C290.173 93.7795 290.656 94.3004 291.04 94.9972C291.423 95.6939 291.615 96.6271 291.615 97.7969V107.5H289.352V105.506H289.237C289.084 105.825 288.828 106.167 288.47 106.532C288.112 106.896 287.636 107.206 287.041 107.462C286.447 107.717 285.721 107.845 284.865 107.845ZM285.21 105.812C286.105 105.812 286.859 105.637 287.473 105.285C288.093 104.934 288.559 104.48 288.873 103.924C289.192 103.368 289.352 102.783 289.352 102.169V100.098C289.256 100.213 289.045 100.319 288.719 100.414C288.4 100.504 288.029 100.584 287.607 100.654C287.191 100.718 286.786 100.776 286.389 100.827C285.999 100.871 285.683 100.91 285.44 100.942C284.852 101.018 284.302 101.143 283.791 101.316C283.286 101.482 282.877 101.734 282.564 102.073C282.257 102.406 282.103 102.859 282.103 103.435C282.103 104.221 282.394 104.815 282.976 105.218C283.564 105.614 284.309 105.812 285.21 105.812ZM309.743 92.7727V94.6903H302.111V92.7727H309.743ZM304.336 89.2443H306.599V103.281C306.599 103.92 306.691 104.4 306.877 104.719C307.068 105.033 307.311 105.244 307.605 105.352C307.906 105.455 308.222 105.506 308.555 105.506C308.804 105.506 309.008 105.493 309.168 105.467C309.328 105.435 309.456 105.41 309.552 105.391L310.012 107.423C309.858 107.481 309.644 107.538 309.369 107.596C309.095 107.66 308.746 107.692 308.324 107.692C307.685 107.692 307.059 107.554 306.445 107.279C305.838 107.005 305.333 106.586 304.93 106.023C304.534 105.461 304.336 104.751 304.336 103.895V89.2443ZM319.164 107.807C317.745 107.807 316.521 107.494 315.491 106.867C314.469 106.234 313.679 105.352 313.123 104.221C312.574 103.083 312.299 101.76 312.299 100.251C312.299 98.7429 312.574 97.4134 313.123 96.2628C313.679 95.1058 314.453 94.2045 315.444 93.5589C316.441 92.907 317.604 92.581 318.934 92.581C319.701 92.581 320.458 92.7088 321.206 92.9645C321.954 93.2202 322.635 93.6357 323.248 94.2109C323.862 94.7798 324.351 95.5341 324.715 96.4737C325.08 97.4134 325.262 98.5703 325.262 99.9446V100.903H313.909V98.9474H322.961C322.961 98.1165 322.794 97.375 322.462 96.723C322.136 96.071 321.669 95.5565 321.062 95.1793C320.461 94.8022 319.752 94.6136 318.934 94.6136C318.032 94.6136 317.252 94.8374 316.594 95.2848C315.942 95.7259 315.44 96.3011 315.089 97.0107C314.737 97.7202 314.561 98.4808 314.561 99.2926V100.597C314.561 101.709 314.753 102.652 315.137 103.425C315.527 104.192 316.067 104.777 316.757 105.18C317.447 105.576 318.25 105.774 319.164 105.774C319.758 105.774 320.295 105.691 320.775 105.525C321.26 105.352 321.679 105.097 322.031 104.758C322.382 104.413 322.654 103.984 322.846 103.473L325.032 104.087C324.801 104.828 324.415 105.48 323.871 106.043C323.328 106.599 322.657 107.033 321.858 107.347C321.059 107.653 320.161 107.807 319.164 107.807ZM333.038 107.845C332.104 107.845 331.257 107.669 330.497 107.318C329.736 106.96 329.132 106.445 328.685 105.774C328.237 105.097 328.013 104.278 328.013 103.32C328.013 102.476 328.18 101.792 328.512 101.268C328.844 100.737 329.289 100.322 329.845 100.021C330.401 99.7209 331.015 99.4972 331.686 99.3501C332.363 99.1967 333.044 99.0753 333.728 98.9858C334.623 98.8707 335.348 98.7844 335.904 98.7269C336.467 98.663 336.876 98.5575 337.132 98.4105C337.394 98.2635 337.525 98.0078 337.525 97.6435V97.5668C337.525 96.6207 337.266 95.8857 336.748 95.3615C336.237 94.8374 335.46 94.5753 334.418 94.5753C333.338 94.5753 332.491 94.8118 331.877 95.2848C331.264 95.7578 330.832 96.2628 330.583 96.7997L328.435 96.0327C328.819 95.1378 329.33 94.4411 329.969 93.9425C330.615 93.4375 331.318 93.0859 332.079 92.8878C332.846 92.6832 333.6 92.581 334.342 92.581C334.815 92.581 335.358 92.6385 335.972 92.7536C336.592 92.8622 337.189 93.0891 337.765 93.4343C338.346 93.7795 338.829 94.3004 339.212 94.9972C339.596 95.6939 339.788 96.6271 339.788 97.7969V107.5H337.525V105.506H337.41C337.256 105.825 337.001 106.167 336.643 106.532C336.285 106.896 335.809 107.206 335.214 107.462C334.62 107.717 333.894 107.845 333.038 107.845ZM333.383 105.812C334.278 105.812 335.032 105.637 335.646 105.285C336.266 104.934 336.732 104.48 337.045 103.924C337.365 103.368 337.525 102.783 337.525 102.169V100.098C337.429 100.213 337.218 100.319 336.892 100.414C336.572 100.504 336.202 100.584 335.78 100.654C335.364 100.718 334.958 100.776 334.562 100.827C334.172 100.871 333.856 100.91 333.613 100.942C333.025 101.018 332.475 101.143 331.964 101.316C331.459 101.482 331.05 101.734 330.737 102.073C330.43 102.406 330.276 102.859 330.276 103.435C330.276 104.221 330.567 104.815 331.149 105.218C331.737 105.614 332.482 105.812 333.383 105.812ZM343.918 107.5V92.7727H346.104V95.0739H346.296C346.602 94.2876 347.098 93.6772 347.782 93.2425C348.466 92.8015 349.287 92.581 350.246 92.581C351.217 92.581 352.026 92.8015 352.672 93.2425C353.324 93.6772 353.832 94.2876 354.196 95.0739H354.35C354.727 94.3132 355.292 93.7092 356.047 93.2617C356.801 92.8079 357.705 92.581 358.76 92.581C360.077 92.581 361.154 92.9933 361.991 93.8178C362.829 94.636 363.247 95.9112 363.247 97.6435V107.5H360.984V97.6435C360.984 96.5568 360.687 95.7802 360.093 95.3136C359.498 94.8469 358.798 94.6136 357.993 94.6136C356.957 94.6136 356.155 94.9268 355.586 95.5533C355.017 96.1733 354.733 96.9595 354.733 97.9119V107.5H352.432V97.4134C352.432 96.576 352.16 95.9016 351.617 95.3903C351.074 94.8725 350.374 94.6136 349.517 94.6136C348.929 94.6136 348.379 94.7702 347.868 95.0835C347.363 95.3967 346.954 95.8313 346.641 96.3874C346.334 96.9371 346.18 97.5732 346.18 98.2955V107.5H343.918ZM370.376 87.8636L370.184 101.977H367.96L367.768 87.8636H370.376ZM369.072 107.653C368.599 107.653 368.193 107.484 367.854 107.145C367.516 106.806 367.346 106.401 367.346 105.928C367.346 105.455 367.516 105.049 367.854 104.71C368.193 104.371 368.599 104.202 369.072 104.202C369.545 104.202 369.951 104.371 370.29 104.71C370.628 105.049 370.798 105.455 370.798 105.928C370.798 106.241 370.718 106.528 370.558 106.79C370.405 107.053 370.197 107.263 369.935 107.423C369.679 107.577 369.392 107.653 369.072 107.653Z" fill="white"/>
<path d="M92 129.5H2" stroke="#29ABE2" stroke-width="3" stroke-linecap="round"/>
</svg>
