<svg width="25" height="25" viewBox="0 0 25 25" fill="none" xmlns="http://www.w3.org/2000/svg">
<path d="M18.7945 4.19232L18.7945 20.8077C18.7941 21.2972 18.5994 21.7665 18.2533 22.1126C17.9072 22.4587 17.4379 22.6534 16.9484 22.6539L13.2561 22.6539C12.7666 22.6534 12.2973 22.4587 11.9512 22.1126C11.6051 21.7665 11.4104 21.2972 11.4099 20.8077L11.4099 4.19232C11.4104 3.70284 11.6051 3.23354 11.9512 2.88743C12.2973 2.54131 12.7666 2.34665 13.2561 2.34616L16.9484 2.34616C17.4379 2.34665 17.9072 2.54131 18.2533 2.88743C18.5994 3.23354 18.7941 3.70284 18.7945 4.19232ZM13.2561 20.8077L16.9484 20.8077L16.9484 4.19232L13.2561 4.19232L13.2561 20.8077ZM13.2561 4.19232L13.2561 20.8077C13.2556 21.2972 13.0609 21.7665 12.7148 22.1126C12.3687 22.4587 11.8994 22.6533 11.4099 22.6538L7.71762 22.6538C7.22814 22.6533 6.75885 22.4587 6.41274 22.1126C6.06662 21.7665 5.87196 21.2972 5.87147 20.8077L5.87147 4.1923C5.87196 3.70282 6.06662 3.23353 6.41273 2.88741C6.75885 2.5413 7.22814 2.34663 7.71762 2.34615L11.4099 2.34615C11.8994 2.34663 12.3687 2.5413 12.7148 2.88741C13.0609 3.23353 13.2556 3.70284 13.2561 4.19232ZM7.71762 20.8077L11.4099 20.8077L11.4099 4.19232L7.71762 4.1923L7.71762 20.8077ZM7.71762 4.1923L7.71762 20.8077C7.71713 21.2972 7.52247 21.7665 7.17636 22.1126C6.83024 22.4587 6.36095 22.6533 5.87147 22.6538L2.17916 22.6538C1.68968 22.6533 1.22039 22.4587 0.874273 22.1126C0.528158 21.7665 0.333497 21.2972 0.333008 20.8077L0.333007 4.1923C0.333496 3.70282 0.528158 3.23353 0.874273 2.88741C1.22039 2.5413 1.68968 2.34663 2.17916 2.34615L5.87147 2.34615C6.36095 2.34663 6.83024 2.5413 7.17636 2.88741C7.52247 3.23353 7.71713 3.70282 7.71762 4.1923ZM2.17916 20.8077L5.87147 20.8077L5.87147 4.1923L2.17916 4.1923L2.17916 20.8077Z" fill="white"/>
<path d="M24.333 4.19252L24.333 20.8079C24.3325 21.2974 24.1379 21.7667 23.7917 22.1128C23.4456 22.4589 22.9763 22.6536 22.4869 22.6541L18.7945 22.6541C18.3051 22.6536 17.8358 22.4589 17.4897 22.1128C17.1435 21.7667 16.9489 21.2972 16.9484 20.8077L16.9484 4.19232C16.9489 3.70284 17.1435 3.23375 17.4897 2.88763C17.8358 2.54152 18.3051 2.34686 18.7945 2.34637L22.4869 2.34637C22.9763 2.34686 23.4456 2.54152 23.7917 2.88763C24.1379 3.23375 24.3325 3.70304 24.333 4.19252ZM18.7945 20.8077L22.4869 20.8079L22.4869 4.19252L18.7945 4.19232L18.7945 20.8077Z" fill="white"/>
</svg>
