<svg width="363" height="91" viewBox="0 0 363 91" fill="none" xmlns="http://www.w3.org/2000/svg">
<path d="M5.85582 59.5V15.1364H35.7493V22.8697H15.2354V33.4407H34.2113V41.174H15.2354V51.7667H35.8359V59.5H5.85582ZM55.2938 60.0415C52.7665 60.0415 50.4776 59.3917 48.4269 58.092C46.3907 56.7778 44.7733 54.8499 43.5747 52.3082C42.3905 49.7521 41.7984 46.6184 41.7984 42.907C41.7984 39.0945 42.4121 35.9246 43.6396 33.3974C44.8672 30.8557 46.499 28.9567 48.5352 27.7003C50.5859 26.4295 52.8315 25.794 55.2721 25.794C57.135 25.794 58.6875 26.1117 59.9294 26.7472C61.1858 27.3681 62.1967 28.148 62.9621 29.0866C63.7419 30.0109 64.334 30.9207 64.7384 31.816H65.02V15.1364H74.2263V59.5H65.1283V54.1712H64.7384C64.3051 55.0954 63.6914 56.0124 62.8971 56.9222C62.1173 57.8176 61.0992 58.5613 59.8428 59.1534C58.6008 59.7455 57.0845 60.0415 55.2938 60.0415ZM58.2181 52.6982C59.7056 52.6982 60.962 52.2938 61.9873 51.4851C63.0271 50.6619 63.8213 49.5138 64.3701 48.0408C64.9333 46.5678 65.2149 44.8421 65.2149 42.8636C65.2149 40.8852 64.9405 39.1667 64.3918 37.7081C63.843 36.2495 63.0487 35.1231 62.009 34.3288C60.9692 33.5346 59.7056 33.1374 58.2181 33.1374C56.7018 33.1374 55.4237 33.549 54.384 34.3722C53.3442 35.1953 52.5571 36.3362 52.0228 37.7947C51.4885 39.2533 51.2213 40.9429 51.2213 42.8636C51.2213 44.7988 51.4885 46.5101 52.0228 47.9975C52.5716 49.4705 53.3586 50.6258 54.384 51.4634C55.4237 52.2866 56.7018 52.6982 58.2181 52.6982ZM81.8134 59.5V26.2273H91.0414V59.5H81.8134ZM86.449 21.9382C85.0771 21.9382 83.9002 21.4833 82.9181 20.5735C81.9506 19.6493 81.4668 18.5445 81.4668 17.2592C81.4668 15.9884 81.9506 14.8981 82.9181 13.9883C83.9002 13.064 85.0771 12.6019 86.449 12.6019C87.821 12.6019 88.9907 13.064 89.9583 13.9883C90.9403 14.8981 91.4313 15.9884 91.4313 17.2592C91.4313 18.5445 90.9403 19.6493 89.9583 20.5735C88.9907 21.4833 87.821 21.9382 86.449 21.9382ZM116.131 26.2273V33.1591H96.094V26.2273H116.131ZM100.643 18.2557H109.871V49.2756C109.871 50.1276 110.001 50.7919 110.261 51.2685C110.521 51.7306 110.882 52.0555 111.344 52.2433C111.821 52.431 112.369 52.5249 112.99 52.5249C113.424 52.5249 113.857 52.4888 114.29 52.4165C114.723 52.3299 115.055 52.2649 115.286 52.2216L116.738 59.0884C116.276 59.2328 115.626 59.3989 114.788 59.5866C113.951 59.7888 112.933 59.9116 111.734 59.9549C109.51 60.0415 107.56 59.7455 105.885 59.0668C104.224 58.388 102.932 57.3338 102.008 55.9041C101.083 54.4744 100.629 52.6693 100.643 50.4886V18.2557ZM151.294 60.1499C147.886 60.1499 144.954 59.4278 142.499 57.9837C140.059 56.5251 138.181 54.5033 136.867 51.9183C135.567 49.3333 134.918 46.3584 134.918 42.9936C134.918 39.5855 135.575 36.5961 136.889 34.0256C138.217 31.4406 140.102 29.426 142.543 27.9819C144.983 26.5233 147.886 25.794 151.251 25.794C154.153 25.794 156.695 26.3211 158.876 27.3754C161.056 28.4296 162.782 29.9098 164.053 31.816C165.324 33.7223 166.024 35.9607 166.154 38.5312H157.446C157.201 36.8705 156.551 35.5347 155.496 34.5238C154.457 33.4985 153.092 32.9858 151.402 32.9858C149.973 32.9858 148.723 33.3757 147.655 34.1555C146.601 34.9209 145.777 36.0401 145.185 37.5131C144.593 38.9862 144.297 40.7696 144.297 42.8636C144.297 44.9865 144.586 46.7917 145.164 48.2791C145.756 49.7666 146.586 50.9002 147.655 51.68C148.723 52.4599 149.973 52.8498 151.402 52.8498C152.457 52.8498 153.402 52.6332 154.24 52.1999C155.092 51.7667 155.792 51.1385 156.341 50.3153C156.904 49.4777 157.273 48.4741 157.446 47.3043H166.154C166.01 49.846 165.317 52.0844 164.075 54.0195C162.847 55.9402 161.15 57.4421 158.984 58.5252C156.818 59.6083 154.254 60.1499 151.294 60.1499ZM187.096 60.1499C183.731 60.1499 180.821 59.435 178.366 58.0053C175.925 56.5612 174.041 54.5539 172.712 51.9833C171.384 49.3983 170.719 46.4018 170.719 42.9936C170.719 39.5566 171.384 36.5528 172.712 33.9822C174.041 31.3973 175.925 29.3899 178.366 27.9602C180.821 26.5161 183.731 25.794 187.096 25.794C190.461 25.794 193.363 26.5161 195.804 27.9602C198.259 29.3899 200.151 31.3973 201.479 33.9822C202.808 36.5528 203.472 39.5566 203.472 42.9936C203.472 46.4018 202.808 49.3983 201.479 51.9833C200.151 54.5539 198.259 56.5612 195.804 58.0053C193.363 59.435 190.461 60.1499 187.096 60.1499ZM187.139 53.0014C188.67 53.0014 189.948 52.5682 190.973 51.7017C191.999 50.8208 192.771 49.6222 193.291 48.1058C193.825 46.5895 194.093 44.8638 194.093 42.9286C194.093 40.9935 193.825 39.2678 193.291 37.7514C192.771 36.2351 191.999 35.0365 190.973 34.1555C189.948 33.2746 188.67 32.8342 187.139 32.8342C185.594 32.8342 184.294 33.2746 183.24 34.1555C182.2 35.0365 181.413 36.2351 180.879 37.7514C180.359 39.2678 180.099 40.9935 180.099 42.9286C180.099 44.8638 180.359 46.5895 180.879 48.1058C181.413 49.6222 182.2 50.8208 183.24 51.7017C184.294 52.5682 185.594 53.0014 187.139 53.0014ZM218.701 40.2642V59.5H209.473V26.2273H218.267V32.0977H218.657C219.394 30.1625 220.628 28.6317 222.361 27.5053C224.094 26.3645 226.196 25.794 228.665 25.794C230.976 25.794 232.99 26.2995 234.709 27.3104C236.427 28.3213 237.763 29.7654 238.716 31.6428C239.669 33.5057 240.146 35.7296 240.146 38.3146V59.5H230.918V39.9609C230.932 37.9247 230.412 36.3362 229.358 35.1953C228.304 34.04 226.853 33.4624 225.004 33.4624C223.762 33.4624 222.665 33.7295 221.712 34.2638C220.773 34.7982 220.036 35.578 219.502 36.6033C218.982 37.6142 218.715 38.8345 218.701 40.2642ZM265.117 26.2273V33.1591H245.079V26.2273H265.117ZM249.628 18.2557H258.856V49.2756C258.856 50.1276 258.986 50.7919 259.246 51.2685C259.506 51.7306 259.867 52.0555 260.329 52.2433C260.806 52.431 261.355 52.5249 261.976 52.5249C262.409 52.5249 262.842 52.4888 263.275 52.4165C263.709 52.3299 264.041 52.2649 264.272 52.2216L265.723 59.0884C265.261 59.2328 264.611 59.3989 263.774 59.5866C262.936 59.7888 261.918 59.9116 260.719 59.9549C258.495 60.0415 256.546 59.7455 254.871 59.0668C253.21 58.388 251.917 57.3338 250.993 55.9041C250.069 54.4744 249.614 52.6693 249.628 50.4886V18.2557ZM280.616 60.1282C278.493 60.1282 276.601 59.7599 274.94 59.0234C273.28 58.2725 271.965 57.1677 270.998 55.7092C270.045 54.2362 269.568 52.4021 269.568 50.207C269.568 48.3585 269.908 46.8061 270.586 45.5497C271.265 44.2933 272.189 43.2824 273.359 42.517C274.529 41.7517 275.857 41.174 277.345 40.7841C278.847 40.3942 280.421 40.1198 282.067 39.9609C284.002 39.7588 285.562 39.571 286.746 39.3977C287.93 39.21 288.79 38.9356 289.324 38.5746C289.858 38.2135 290.125 37.6792 290.125 36.9716V36.8416C290.125 35.4697 289.692 34.4083 288.826 33.6573C287.974 32.9064 286.761 32.5309 285.186 32.5309C283.526 32.5309 282.204 32.8991 281.222 33.6357C280.24 34.3577 279.59 35.2675 279.273 36.3651L270.738 35.6719C271.171 33.6501 272.023 31.9027 273.294 30.4297C274.565 28.9422 276.204 27.8014 278.211 27.0071C280.233 26.1984 282.573 25.794 285.23 25.794C287.078 25.794 288.847 26.0107 290.537 26.4439C292.241 26.8771 293.75 27.5486 295.064 28.4584C296.393 29.3683 297.44 30.538 298.205 31.9677C298.971 33.3829 299.353 35.0798 299.353 37.0582V59.5H290.602V54.886H290.342C289.808 55.9258 289.093 56.8428 288.197 57.6371C287.302 58.4169 286.226 59.0307 284.97 59.4783C283.713 59.9116 282.262 60.1282 280.616 60.1282ZM283.259 53.7596C284.616 53.7596 285.815 53.4924 286.854 52.9581C287.894 52.4093 288.71 51.6728 289.302 50.7486C289.894 49.8243 290.19 48.7773 290.19 47.6076V44.0767C289.902 44.2644 289.504 44.4377 288.999 44.5966C288.508 44.741 287.952 44.8782 287.331 45.0082C286.71 45.1237 286.089 45.232 285.468 45.3331C284.847 45.4197 284.284 45.4992 283.778 45.5714C282.695 45.7302 281.749 45.983 280.941 46.3295C280.132 46.6761 279.504 47.1455 279.056 47.7376C278.608 48.3152 278.385 49.0373 278.385 49.9038C278.385 51.1602 278.839 52.1205 279.749 52.7848C280.674 53.4347 281.843 53.7596 283.259 53.7596ZM321.546 60.1499C318.138 60.1499 315.206 59.4278 312.751 57.9837C310.311 56.5251 308.433 54.5033 307.119 51.9183C305.819 49.3333 305.17 46.3584 305.17 42.9936C305.17 39.5855 305.827 36.5961 307.141 34.0256C308.469 31.4406 310.354 29.426 312.795 27.9819C315.235 26.5233 318.138 25.794 321.503 25.794C324.405 25.794 326.947 26.3211 329.128 27.3754C331.308 28.4296 333.034 29.9098 334.305 31.816C335.576 33.7223 336.276 35.9607 336.406 38.5312H327.698C327.452 36.8705 326.803 35.5347 325.748 34.5238C324.709 33.4985 323.344 32.9858 321.654 32.9858C320.225 32.9858 318.975 33.3757 317.907 34.1555C316.853 34.9209 316.029 36.0401 315.437 37.5131C314.845 38.9862 314.549 40.7696 314.549 42.8636C314.549 44.9865 314.838 46.7917 315.416 48.2791C316.008 49.7666 316.838 50.9002 317.907 51.68C318.975 52.4599 320.225 52.8498 321.654 52.8498C322.709 52.8498 323.654 52.6332 324.492 52.1999C325.344 51.7667 326.044 51.1385 326.593 50.3153C327.156 49.4777 327.525 48.4741 327.698 47.3043H336.406C336.262 49.846 335.568 52.0844 334.327 54.0195C333.099 55.9402 331.402 57.4421 329.236 58.5252C327.07 59.6083 324.506 60.1499 321.546 60.1499ZM360.012 26.2273V33.1591H339.975V26.2273H360.012ZM344.524 18.2557H353.752V49.2756C353.752 50.1276 353.882 50.7919 354.142 51.2685C354.402 51.7306 354.763 52.0555 355.225 52.2433C355.701 52.431 356.25 52.5249 356.871 52.5249C357.304 52.5249 357.738 52.4888 358.171 52.4165C358.604 52.3299 358.936 52.2649 359.167 52.2216L360.619 59.0884C360.157 59.2328 359.507 59.3989 358.669 59.5866C357.832 59.7888 356.813 59.9116 355.615 59.9549C353.391 60.0415 351.441 59.7455 349.766 59.0668C348.105 58.388 346.813 57.3338 345.889 55.9041C344.964 54.4744 344.509 52.6693 344.524 50.4886V18.2557Z" fill="white"/>
<path d="M92 89.5H2" stroke="#29ABE2" stroke-width="3" stroke-linecap="round"/>
</svg>
